<svg id="visual" viewBox="0 0 960 540" width="960" height="540" xmlns="http://www.w3.org/2000/svg" xmlns:xlink="http://www.w3.org/1999/xlink" version="1.1"><rect x="0" y="0" width="960" height="540" fill="#163838"></rect><g fill="#258282"><path d="M31.3 18.1L31.3 80.7L-31.3 80.7L-31.3 18.1L-85.5 -13.2L-54.2 -67.4L0 -36.1L54.2 -67.4L85.5 -13.2Z" transform="translate(194 86)"></path><path d="M13.8 7.9L13.8 35.5L-13.8 35.5L-13.8 7.9L-37.6 -5.8L-23.8 -29.7L0 -15.9L23.8 -29.7L37.6 -5.8Z" transform="translate(524 486)"></path><path d="M18.1 10.4L18.1 46.6L-18.1 46.6L-18.1 10.4L-49.4 -7.6L-31.3 -39L0 -20.9L31.3 -39L49.4 -7.6Z" transform="translate(905 362)"></path><path d="M13.5 7.8L13.5 34.8L-13.5 34.8L-13.5 7.8L-36.9 -5.7L-23.4 -29.1L0 -15.6L23.4 -29.1L36.9 -5.7Z" transform="translate(529 151)"></path></g></svg>